<svg xmlns="http://www.w3.org/2000/svg" viewBox="0 0 32 32">
  <rect width="32" height="32" rx="6" fill="#000000"/>
  <path 
    d="M 2 20 
       C 4 20 5 20 6 20
       C 7 20 7 15 9 15
       C 11 15 11 20 12 20
       C 13 20 13 24 15 24
       C 17 24 17 11 19 11
       C 21 11 21 28 23 28
       C 25 28 25 6 27 6
       C 29 6 29 20 30 20" 
    stroke="#f97316" 
    stroke-width="2.5" 
    stroke-linecap="round" 
    stroke-linejoin="round"
    fill="none"
  />
  <circle cx="9" cy="10" r="2.5" fill="white" />
  <circle cx="9" cy="10" r="1" fill="black" />
  
  <circle cx="19" cy="6" r="2.5" fill="white" />
  <circle cx="19" cy="6" r="1" fill="black" />
  
  <circle cx="27" cy="2" r="2.5" fill="white" />
  <circle cx="27" cy="2" r="1" fill="black" />
</svg>
